<svg xmlns="http://www.w3.org/2000/svg" width="1400" height="1180" viewBox="0 0 1400 1180"><title>La Prussia dal ducato al regno</title><desc>Unione dinastica, indipendenza feudale e titolo regio sono passaggi diversi.</desc><defs><marker id="arrow" markerWidth="10" markerHeight="10" refX="7" refY="4" orient="auto"><path d="M0 0L8 4L0 8" fill="none" stroke="#102e58" stroke-width="1.5"/></marker></defs><rect x="1" y="1" width="1398" height="1178" rx="24" fill="#ffffff" stroke="#d2d9e2"/><text text-anchor="middle" fill="#102e58" font-family="DejaVu Sans,Arial,sans-serif" font-size="42" font-weight="700"><tspan x="700" y="80.0">La Prussia dal ducato al regno</tspan></text><text text-anchor="middle" fill="#102e58" font-family="DejaVu Sans,Arial,sans-serif" font-size="24" font-weight="400"><tspan x="700" y="140.0">XVI–XVIII secolo · gbprof e Libera</tspan></text><rect x="320" y="190" width="760" height="120" rx="20" fill="#09284e"/><text text-anchor="middle" fill="#fff" font-family="DejaVu Sans,Arial,sans-serif" font-size="34" font-weight="700"><tspan x="700" y="255.0">Ducato, sovranità e corona</tspan></text><path d="M700 310L150 375L150 402" fill="none" stroke="#102e58" stroke-width="3.5" marker-end="url(#arrow)"/><rect x="29" y="430" width="242" height="120" rx="14" fill="#427817" fill-opacity=".12" stroke="#427817" stroke-width="2.7"/><circle cx="150" cy="430" r="26" fill="#427817" stroke="white" stroke-width="4"/><text text-anchor="middle" fill="#fff" font-family="DejaVu Sans,Arial,sans-serif" font-size="26" font-weight="700"><tspan x="150" y="439.0">1</tspan></text><text text-anchor="middle" fill="#102e58" font-family="DejaVu Sans,Arial,sans-serif" font-size="27" font-weight="700"><tspan x="150" y="496.0">Territori</tspan></text><path d="M150 550V585" stroke="#427817" stroke-width="3"/><rect x="32" y="585" width="236" height="130" rx="12" fill="#fff" stroke="#427817" stroke-width="2"/><text text-anchor="middle" fill="#102e58" font-family="DejaVu Sans,Arial,sans-serif" font-size="25" font-weight="400"><tspan x="150" y="638.0">Brandeburgo</tspan><tspan x="150" y="670.5">nell’Impero</tspan></text><path d="M150 715V735" stroke="#427817" stroke-width="3"/><rect x="32" y="735" width="236" height="130" rx="12" fill="#fff" stroke="#427817" stroke-width="2"/><text text-anchor="middle" fill="#102e58" font-family="DejaVu Sans,Arial,sans-serif" font-size="25" font-weight="400"><tspan x="150" y="788.0">Prussia feudo</tspan><tspan x="150" y="820.5">polacco</tspan></text><path d="M150 865V900H700V925" fill="none" stroke="#427817" stroke-width="3"/><path d="M700 310L425 375L425 402" fill="none" stroke="#102e58" stroke-width="3.5" marker-end="url(#arrow)"/><rect x="304" y="430" width="242" height="120" rx="14" fill="#14619a" fill-opacity=".12" stroke="#14619a" stroke-width="2.7"/><circle cx="425" cy="430" r="26" fill="#14619a" stroke="white" stroke-width="4"/><text text-anchor="middle" fill="#fff" font-family="DejaVu Sans,Arial,sans-serif" font-size="26" font-weight="700"><tspan x="425" y="439.0">2</tspan></text><text text-anchor="middle" fill="#102e58" font-family="DejaVu Sans,Arial,sans-serif" font-size="27" font-weight="700"><tspan x="425" y="496.0">Dinastia</tspan></text><path d="M425 550V585" stroke="#14619a" stroke-width="3"/><rect x="307" y="585" width="236" height="130" rx="12" fill="#fff" stroke="#14619a" stroke-width="2"/><text text-anchor="middle" fill="#102e58" font-family="DejaVu Sans,Arial,sans-serif" font-size="25" font-weight="400"><tspan x="425" y="654.0">Unione del 1618</tspan></text><path d="M425 715V735" stroke="#14619a" stroke-width="3"/><rect x="307" y="735" width="236" height="130" rx="12" fill="#fff" stroke="#14619a" stroke-width="2"/><text text-anchor="middle" fill="#102e58" font-family="DejaVu Sans,Arial,sans-serif" font-size="25" font-weight="400"><tspan x="425" y="788.0">Domini</tspan><tspan x="425" y="820.5">discontinui</tspan></text><path d="M425 865V900H700V925" fill="none" stroke="#14619a" stroke-width="3"/><path d="M700 310L700 375L700 402" fill="none" stroke="#102e58" stroke-width="3.5" marker-end="url(#arrow)"/><rect x="579" y="430" width="242" height="120" rx="14" fill="#c66608" fill-opacity=".12" stroke="#c66608" stroke-width="2.7"/><circle cx="700" cy="430" r="26" fill="#c66608" stroke="white" stroke-width="4"/><text text-anchor="middle" fill="#fff" font-family="DejaVu Sans,Arial,sans-serif" font-size="26" font-weight="700"><tspan x="700" y="439.0">3</tspan></text><text text-anchor="middle" fill="#102e58" font-family="DejaVu Sans,Arial,sans-serif" font-size="27" font-weight="700"><tspan x="700" y="496.0">Sovranità</tspan></text><path d="M700 550V585" stroke="#c66608" stroke-width="3"/><rect x="582" y="585" width="236" height="130" rx="12" fill="#fff" stroke="#c66608" stroke-width="2"/><text text-anchor="middle" fill="#102e58" font-family="DejaVu Sans,Arial,sans-serif" font-size="25" font-weight="400"><tspan x="700" y="638.0">Wehlau e</tspan><tspan x="700" y="670.5">Bromberg</tspan></text><path d="M700 715V735" stroke="#c66608" stroke-width="3"/><rect x="582" y="735" width="236" height="130" rx="12" fill="#fff" stroke="#c66608" stroke-width="2"/><text text-anchor="middle" fill="#102e58" font-family="DejaVu Sans,Arial,sans-serif" font-size="25" font-weight="400"><tspan x="700" y="804.0">Oliva, 1660</tspan></text><path d="M700 865V900H700V925" fill="none" stroke="#c66608" stroke-width="3"/><path d="M700 310L975 375L975 402" fill="none" stroke="#102e58" stroke-width="3.5" marker-end="url(#arrow)"/><rect x="854" y="430" width="242" height="120" rx="14" fill="#71469c" fill-opacity=".12" stroke="#71469c" stroke-width="2.7"/><circle cx="975" cy="430" r="26" fill="#71469c" stroke="white" stroke-width="4"/><text text-anchor="middle" fill="#fff" font-family="DejaVu Sans,Arial,sans-serif" font-size="26" font-weight="700"><tspan x="975" y="439.0">4</tspan></text><text text-anchor="middle" fill="#102e58" font-family="DejaVu Sans,Arial,sans-serif" font-size="27" font-weight="700"><tspan x="975" y="496.0">Governo</tspan></text><path d="M975 550V585" stroke="#71469c" stroke-width="3"/><rect x="857" y="585" width="236" height="130" rx="12" fill="#fff" stroke="#71469c" stroke-width="2"/><text text-anchor="middle" fill="#102e58" font-family="DejaVu Sans,Arial,sans-serif" font-size="25" font-weight="400"><tspan x="975" y="638.0">Junker e servizio</tspan><tspan x="975" y="670.5">militare</tspan></text><path d="M975 715V735" stroke="#71469c" stroke-width="3"/><rect x="857" y="735" width="236" height="130" rx="12" fill="#fff" stroke="#71469c" stroke-width="2"/><text text-anchor="middle" fill="#102e58" font-family="DejaVu Sans,Arial,sans-serif" font-size="25" font-weight="400"><tspan x="975" y="788.0">Esercito e</tspan><tspan x="975" y="820.5">fiscalità</tspan></text><path d="M975 865V900H700V925" fill="none" stroke="#71469c" stroke-width="3"/><path d="M700 310L1250 375L1250 402" fill="none" stroke="#102e58" stroke-width="3.5" marker-end="url(#arrow)"/><rect x="1129" y="430" width="242" height="120" rx="14" fill="#147d7e" fill-opacity=".12" stroke="#147d7e" stroke-width="2.7"/><circle cx="1250" cy="430" r="26" fill="#147d7e" stroke="white" stroke-width="4"/><text text-anchor="middle" fill="#fff" font-family="DejaVu Sans,Arial,sans-serif" font-size="26" font-weight="700"><tspan x="1250" y="439.0">5</tspan></text><text text-anchor="middle" fill="#102e58" font-family="DejaVu Sans,Arial,sans-serif" font-size="27" font-weight="700"><tspan x="1250" y="496.0">Potenza</tspan></text><path d="M1250 550V585" stroke="#147d7e" stroke-width="3"/><rect x="1132" y="585" width="236" height="130" rx="12" fill="#fff" stroke="#147d7e" stroke-width="2"/><text text-anchor="middle" fill="#102e58" font-family="DejaVu Sans,Arial,sans-serif" font-size="25" font-weight="400"><tspan x="1250" y="638.0">Re in Prussia,</tspan><tspan x="1250" y="670.5">1701</tspan></text><path d="M1250 715V735" stroke="#147d7e" stroke-width="3"/><rect x="1132" y="735" width="236" height="130" rx="12" fill="#fff" stroke="#147d7e" stroke-width="2"/><text text-anchor="middle" fill="#102e58" font-family="DejaVu Sans,Arial,sans-serif" font-size="25" font-weight="400"><tspan x="1250" y="788.0">Slesia e Federico</tspan><tspan x="1250" y="820.5">II</tspan></text><path d="M1250 865V900H700V925" fill="none" stroke="#147d7e" stroke-width="3"/><rect x="160" y="940" width="1080" height="185" rx="16" fill="#fffaf2" stroke="#b62021" stroke-width="3"/><rect x="560" y="925" width="280" height="46" rx="9" fill="#b62021"/><text text-anchor="middle" fill="#fff" font-family="DejaVu Sans,Arial,sans-serif" font-size="24" font-weight="700"><tspan x="700" y="956.0">CONCLUSIONE</tspan></text><text text-anchor="middle" fill="#102e58" font-family="DejaVu Sans,Arial,sans-serif" font-size="30" font-weight="700"><tspan x="700" y="1016.8">Unione dinastica, indipendenza feudale e titolo regio</tspan><tspan x="700" y="1055.8">sono passaggi diversi.</tspan></text></svg>