<svg xmlns="http://www.w3.org/2000/svg" viewBox="0 0 1200 2000" role="img" aria-labelledby="title desc">
<title id="title">Amor cortese — copertina illustrata</title><desc id="desc">Percorso visuale sulla corte medievale, il codice amoroso, i trovatori e le trovatrici.</desc>
<defs>
    <filter id="paper"><feTurbulence type="fractalNoise" baseFrequency=".75" numOctaves="3" seed="11" result="n"/><feColorMatrix in="n" type="saturate" values="0"/><feComponentTransfer><feFuncA type="table" tableValues="0 .12"/></feComponentTransfer><feBlend in="SourceGraphic" mode="multiply"/></filter>
    <filter id="shadow" x="-30%" y="-30%" width="160%" height="160%"><feDropShadow dx="0" dy="8" stdDeviation="9" flood-color="#2b1d11" flood-opacity=".28"/></filter>
    <linearGradient id="parch" x1="0" y1="0" x2="1" y2="1"><stop stop-color="#f4e6c1"/><stop offset=".52" stop-color="#e4c792"/><stop offset="1" stop-color="#cfab70"/></linearGradient>
    <linearGradient id="night" x1="0" y1="0" x2="0" y2="1"><stop stop-color="#071f31"/><stop offset=".58" stop-color="#123d4e"/><stop offset="1" stop-color="#704427"/></linearGradient>
    <radialGradient id="sun" cx="50%" cy="50%" r="50%"><stop stop-color="#f5d587" stop-opacity=".95"/><stop offset="1" stop-color="#d78335" stop-opacity="0"/></radialGradient>
    <marker id="arrow" markerWidth="10" markerHeight="10" refX="8" refY="5" orient="auto"><path d="M0,0 L10,5 L0,10 z" fill="#8c532c"/></marker>
  </defs>
<rect width="1200" height="2000" fill="#062b40"/>
<rect x="18" y="18" width="1164" height="1964" rx="20" fill="url(#parch)" stroke="#c68a38" stroke-width="3"/>
<rect x="30" y="30" width="1140" height="1940" rx="16" fill="none" stroke="#062b40" stroke-width="5"/>
<g fill="none" stroke="#c68a38" stroke-width="3" opacity=".92">
      <path d="M28 105Q28 28 105 28M28 72Q72 72 72 28M34 108q58-22 74-74M1172 105Q1172 28 1095 28M1172 72Q1128 72 1128 28M1166 108q-58-22-74-74"/>
      <path d="M28 1895Q28 1972 105 1972M28 1928Q72 1928 72 1972M34 1892q58 22 74 74M1172 1895Q1172 1972 1095 1972M1172 1928Q1128 1928 1128 1972M1166 1892q-58 22-74 74"/>
      <path d="M94 44q24 14 0 28q-24-14 0-28M1106 44q-24 14 0 28q24-14 0-28"/>
    </g>
<style>
  .serif{font-family:Georgia,'Times New Roman',serif;fill:#062b40;} .ink{fill:#2e241d;font-family:Georgia,'Times New Roman',serif}
  .small{font-size:24px} .tiny{font-size:20px} .cardtitle{font:bold 26px Georgia,serif;fill:#062b40}
  .caps{font:bold 23px Georgia,serif;letter-spacing:2px;fill:#c68a38}
</style>
<g text-anchor="middle">
 <text x="600" y="105" class="serif" font-size="35" letter-spacing="8">LETTERATURA MEDIEVALE</text>
 <text x="600" y="185" class="serif" font-size="78" font-weight="bold" letter-spacing="4">AMOR CORTESE</text>
 <text x="600" y="235" class="ink" font-size="34">Il desiderio prende forma</text>
 <text x="600" y="278" class="ink" font-size="24">dalla distanza sociale alla parola poetica</text>
 <text x="600" y="320" class="ink" font-size="19" font-style="italic">a cura di gbprof e Libera</text>
</g>
<g filter="url(#shadow)"><rect x="55" y="350" width="1090" height="590" rx="15" fill="url(#night)" stroke="#062b40" stroke-width="8"/><rect x="68" y="363" width="1064" height="564" rx="10" fill="none" stroke="#c68a38" stroke-width="2"/></g>
<circle cx="978" cy="472" r="95" fill="url(#sun)"/><circle cx="985" cy="466" r="38" fill="#e6c776" opacity=".85"/>
<path d="M68 760 C170 650 240 680 335 608 C430 535 517 585 595 520 C675 455 770 532 830 490 C930 420 1048 487 1132 438 L1132 927 L68 927Z" fill="#173c47" opacity=".85"/>
<g stroke="#c9ad78" stroke-width="3" fill="#24353b" opacity=".95">
 <path d="M90 750V500h65v250M155 750V435h95v315M250 750V535h78v215"/><path d="M145 435l58-65 57 65M96 500l27-38 28 38M255 535l34-42 34 42"/>
 <path d="M173 480h58M174 535h58M108 560h30M270 590h35"/>
 <g fill="#d6a54e"><rect x="190" y="610" width="24" height="55"/><rect x="118" y="620" width="18" height="35"/><rect x="283" y="647" width="18" height="32"/></g>
</g>
<g stroke="#c9ad78" stroke-width="3" fill="#28363a">
 <path d="M935 760V520h165v240M920 520h195M947 520q30-70 60 0q30-70 60 0"/>
 <path d="M957 570h42v125h-42zM1034 570h42v125h-42z"/>
</g>
<g transform="translate(1020 614)" stroke="#d9bc82" stroke-width="3" fill="#6f482c"><circle cx="0" cy="-38" r="19" fill="#d2a56e"/><path d="M-29-12Q0-40 29-12L42 72H-42Z"/><path d="M-12-56q13-22 28 0" fill="none"/></g>
<g transform="translate(595 710)" stroke="#d7b87e" stroke-width="4" fill="#263943">
 <circle cx="0" cy="-70" r="28" fill="#c99462"/><path d="M-45-35Q0-65 45-35L70 120H-70Z"/>
 <path d="M-36 4L55 76M40 20L-30 90" fill="none"/>
 <ellipse cx="47" cy="34" rx="38" ry="50" fill="#b67835" transform="rotate(-22 47 34)"/><circle cx="49" cy="34" r="10" fill="#30221c"/>
 <path d="M72 5l88-80M144-66l28-12" fill="none"/>
</g>
<path d="M372 785Q598 650 832 785" fill="none" stroke="#d4b46e" stroke-width="8"/><path d="M388 787Q600 710 815 787" fill="none" stroke="#6c5134" stroke-width="5"/>
<path d="M600 620V870" stroke="#e0b867" stroke-width="2" stroke-dasharray="8 10" opacity=".8"/>
<g transform="translate(125 800) rotate(-7)" stroke="#62462f" stroke-width="3"><path d="M0 0h195v93H0z" fill="#dcc18a"/><path d="M97 0v93"/><path d="M18 22h65M18 38h65M111 22h65M111 38h65"/></g>
<g text-anchor="middle"><rect x="415" y="847" width="370" height="58" rx="28" fill="#062b40" stroke="#c68a38" stroke-width="2"/><text x="600" y="883" font-family="Arial,sans-serif" font-weight="bold" font-size="22" fill="#f4e5bd" letter-spacing="1">ENTRA NEL PERCORSO →</text></g>
<g filter="url(#shadow)"><rect x="55" y="975" width="250" height="420" rx="18" fill="#f1dfb5" stroke="#765638" stroke-width="4"/><rect x="65" y="985" width="230" height="400" rx="12" fill="none" stroke="#c68a38" stroke-width="2"/><circle cx="180" cy="1005" r="42" fill="#062b40" stroke="#c68a38" stroke-width="4"/><text x="180" y="1020" text-anchor="middle" font-family="Georgia" font-size="44" fill="#e0b867">1</text><g stroke="#7d603d" stroke-width="2" fill="none" opacity=".9"><path d="M90 1080Q140 1025 180 1080Q225 1030 270 1080"/><path d="M103 1215Q180 1145 257 1215M120 1238Q180 1185 240 1238"/></g><text x="180" y="1270" text-anchor="middle" class="cardtitle"><tspan x="180" dy="0">IL MONDO</tspan><tspan x="180" dy="31">DELLA CORTE</tspan></text><text x="180" y="1340" text-anchor="middle" class="ink tiny"><tspan x="180" dy="0">Famiglia, lignaggio,</tspan><tspan x="180" dy="26">matrimonio e potere</tspan></text><circle cx="180" cy="1360" r="26" fill="#062b40" stroke="#c68a38" stroke-width="2"/><path d="M168 1360h20m-8-8 8 8-8 8" stroke="#e0b867" stroke-width="3" fill="none"/></g>
<g filter="url(#shadow)"><rect x="335" y="975" width="250" height="420" rx="18" fill="#f1dfb5" stroke="#765638" stroke-width="4"/><rect x="345" y="985" width="230" height="400" rx="12" fill="none" stroke="#c68a38" stroke-width="2"/><circle cx="460" cy="1005" r="42" fill="#062b40" stroke="#c68a38" stroke-width="4"/><text x="460" y="1020" text-anchor="middle" font-family="Georgia" font-size="44" fill="#e0b867">2</text><g stroke="#7d603d" stroke-width="2" fill="none" opacity=".9"><path d="M370 1080Q420 1025 460 1080Q505 1030 550 1080"/><path d="M383 1215Q460 1145 537 1215M400 1238Q460 1185 520 1238"/></g><text x="460" y="1270" text-anchor="middle" class="cardtitle"><tspan x="460" dy="0">IL CODICE</tspan><tspan x="460" dy="31">DEL DESIDERIO</tspan></text><text x="460" y="1340" text-anchor="middle" class="ink tiny"><tspan x="460" dy="0">Distanza, servizio,</tspan><tspan x="460" dy="26">segretezza, misura</tspan></text><circle cx="460" cy="1360" r="26" fill="#062b40" stroke="#c68a38" stroke-width="2"/><path d="M448 1360h20m-8-8 8 8-8 8" stroke="#e0b867" stroke-width="3" fill="none"/></g>
<g filter="url(#shadow)"><rect x="615" y="975" width="250" height="420" rx="18" fill="#f1dfb5" stroke="#765638" stroke-width="4"/><rect x="625" y="985" width="230" height="400" rx="12" fill="none" stroke="#c68a38" stroke-width="2"/><circle cx="740" cy="1005" r="42" fill="#062b40" stroke="#c68a38" stroke-width="4"/><text x="740" y="1020" text-anchor="middle" font-family="Georgia" font-size="44" fill="#e0b867">3</text><g stroke="#7d603d" stroke-width="2" fill="none" opacity=".9"><path d="M650 1080Q700 1025 740 1080Q785 1030 830 1080"/><path d="M663 1215Q740 1145 817 1215M680 1238Q740 1185 800 1238"/></g><text x="740" y="1270" text-anchor="middle" class="cardtitle"><tspan x="740" dy="0">LA PAROLA</tspan><tspan x="740" dy="31">DEI TROVATORI</tspan></text><text x="740" y="1340" text-anchor="middle" class="ink tiny"><tspan x="740" dy="0">Lingua d’oc, canto,</tspan><tspan x="740" dy="26">Bernart de Ventadorn</tspan></text><circle cx="740" cy="1360" r="26" fill="#062b40" stroke="#c68a38" stroke-width="2"/><path d="M728 1360h20m-8-8 8 8-8 8" stroke="#e0b867" stroke-width="3" fill="none"/></g>
<g filter="url(#shadow)"><rect x="895" y="975" width="250" height="420" rx="18" fill="#f1dfb5" stroke="#765638" stroke-width="4"/><rect x="905" y="985" width="230" height="400" rx="12" fill="none" stroke="#c68a38" stroke-width="2"/><circle cx="1020" cy="1005" r="42" fill="#062b40" stroke="#c68a38" stroke-width="4"/><text x="1020" y="1020" text-anchor="middle" font-family="Georgia" font-size="44" fill="#e0b867">4</text><g stroke="#7d603d" stroke-width="2" fill="none" opacity=".9"><path d="M930 1080Q980 1025 1020 1080Q1065 1030 1110 1080"/><path d="M943 1215Q1020 1145 1097 1215M960 1238Q1020 1185 1080 1238"/></g><text x="1020" y="1270" text-anchor="middle" class="cardtitle"><tspan x="1020" dy="0">LA VOCE</tspan><tspan x="1020" dy="31">DELLE DONNE</tspan></text><text x="1020" y="1340" text-anchor="middle" class="ink tiny"><tspan x="1020" dy="0">Trovatrici, reciprocità,</tspan><tspan x="1020" dy="26">Beatritz de Dia</tspan></text><circle cx="1020" cy="1360" r="26" fill="#062b40" stroke="#c68a38" stroke-width="2"/><path d="M1008 1360h20m-8-8 8 8-8 8" stroke="#e0b867" stroke-width="3" fill="none"/></g>
<text x="600" y="1455" text-anchor="middle" font-family="Georgia" font-size="36" font-weight="bold" fill="#062b40">DIRAMAZIONI DEL PERCORSO</text><path d="M280 1470h210M710 1470h210" stroke="#c68a38" stroke-width="3"/><circle cx="600" cy="1468" r="7" fill="#c68a38"/>
<g><circle cx="90" cy="1545" r="57" fill="#d7bd88" stroke="#062b40" stroke-width="5"/><circle cx="90" cy="1545" r="49" fill="none" stroke="#c68a38" stroke-width="2"/><text x="90" y="1560" text-anchor="middle" font-family="Georgia" font-size="40" fill="#062b40" font-weight="bold">1</text><text x="90" y="1625" text-anchor="middle" font-family="Georgia" font-size="20" fill="#2e241d">Che cos’è</text></g>
<g><circle cx="255" cy="1545" r="57" fill="#d7bd88" stroke="#062b40" stroke-width="5"/><circle cx="255" cy="1545" r="49" fill="none" stroke="#c68a38" stroke-width="2"/><text x="255" y="1560" text-anchor="middle" font-family="Georgia" font-size="40" fill="#062b40" font-weight="bold">2</text><text x="255" y="1625" text-anchor="middle" font-family="Georgia" font-size="20" fill="#2e241d">Famiglia</text></g>
<g><circle cx="420" cy="1545" r="57" fill="#d7bd88" stroke="#062b40" stroke-width="5"/><circle cx="420" cy="1545" r="49" fill="none" stroke="#c68a38" stroke-width="2"/><text x="420" y="1560" text-anchor="middle" font-family="Georgia" font-size="40" fill="#062b40" font-weight="bold">3</text><text x="420" y="1625" text-anchor="middle" font-family="Georgia" font-size="20" fill="#2e241d">Andrea</text></g>
<g><circle cx="585" cy="1545" r="57" fill="#d7bd88" stroke="#062b40" stroke-width="5"/><circle cx="585" cy="1545" r="49" fill="none" stroke="#c68a38" stroke-width="2"/><text x="585" y="1560" text-anchor="middle" font-family="Georgia" font-size="40" fill="#062b40" font-weight="bold">4</text><text x="585" y="1625" text-anchor="middle" font-family="Georgia" font-size="20" fill="#2e241d">Trovatori</text></g>
<g><circle cx="750" cy="1545" r="57" fill="#d7bd88" stroke="#062b40" stroke-width="5"/><circle cx="750" cy="1545" r="49" fill="none" stroke="#c68a38" stroke-width="2"/><text x="750" y="1560" text-anchor="middle" font-family="Georgia" font-size="40" fill="#062b40" font-weight="bold">5</text><text x="750" y="1625" text-anchor="middle" font-family="Georgia" font-size="20" fill="#2e241d">Bernart</text></g>
<g><circle cx="915" cy="1545" r="57" fill="#d7bd88" stroke="#062b40" stroke-width="5"/><circle cx="915" cy="1545" r="49" fill="none" stroke="#c68a38" stroke-width="2"/><text x="915" y="1560" text-anchor="middle" font-family="Georgia" font-size="40" fill="#062b40" font-weight="bold">6</text><text x="915" y="1625" text-anchor="middle" font-family="Georgia" font-size="20" fill="#2e241d">Trovatrici</text></g>
<g><circle cx="1080" cy="1545" r="57" fill="#d7bd88" stroke="#062b40" stroke-width="5"/><circle cx="1080" cy="1545" r="49" fill="none" stroke="#c68a38" stroke-width="2"/><text x="1080" y="1560" text-anchor="middle" font-family="Georgia" font-size="40" fill="#062b40" font-weight="bold">7</text><text x="1080" y="1625" text-anchor="middle" font-family="Georgia" font-size="20" fill="#2e241d">Beatritz</text></g>
<g filter="url(#shadow)"><rect x="55" y="1680" width="520" height="185" rx="18" fill="#f2dfb2" stroke="#062b40" stroke-width="4"/><rect x="625" y="1680" width="520" height="185" rx="18" fill="#f2dfb2" stroke="#062b40" stroke-width="4"/><g transform="translate(110 1730)" fill="none" stroke="#062b40" stroke-width="6"><path d="M0 0q65-25 130 0v85q-65-25-130 0z"/><path d="M130 0q65-25 130 0v85q-65-25-130 0z"/><path d="M130 0v85"/></g><text x="380" y="1740" text-anchor="middle" class="serif" font-size="34" font-weight="bold">Sintesi e vocabolario</text><text x="380" y="1790" text-anchor="middle" class="ink" font-size="22">ricostruisci il filo del percorso</text><circle cx="520" cy="1825" r="25" fill="#062b40"/><path d="M510 1825h20m-8-8 8 8-8 8" stroke="#e0b867" stroke-width="3" fill="none"/><g transform="translate(675 1718)" fill="none" stroke="#062b40" stroke-width="6"><circle cx="72" cy="58" r="52"/><path d="M38 58h68M72 24v68"/></g><text x="945" y="1740" text-anchor="middle" class="serif" font-size="34" font-weight="bold">Test finale</text><text x="945" y="1790" text-anchor="middle" class="ink" font-size="22">20 domande · report · recupero</text><circle cx="1090" cy="1825" r="25" fill="#062b40"/><path d="M1080 1825h20m-8-8 8 8-8 8" stroke="#e0b867" stroke-width="3" fill="none"/></g>
<g text-anchor="middle"><text x="600" y="1918" class="serif" font-size="26" font-weight="bold" letter-spacing="3">DAL VINCOLO SOCIALE ALLA LIBERTÀ DELLA PAROLA</text><text x="600" y="1955" class="ink" font-size="18">© 2026 gbprof e Libera — PWA didattica</text></g>
</svg>
