<svg xmlns="http://www.w3.org/2000/svg" viewBox="0 0 512 512"><rect width="512" height="512" rx="96" fill="#160b0b"/><path d="M256 58c68 86 122 160 122 253 0 74-51 138-122 156-71-18-122-82-122-156 0-93 54-167 122-253z" fill="#9d2b1f"/><path d="M256 96c36 74 46 123 22 170 35-12 62-44 71-90 32 53 26 136-14 184-24 29-53 48-79 56-26-8-55-27-79-56-40-48-46-131-14-184 9 46 36 78 71 90-24-47-14-96 22-170z" fill="#d8b56d"/><text x="256" y="330" font-size="118" text-anchor="middle" font-family="Georgia,serif" fill="#160b0b" font-weight="700">D</text></svg>